<svg width="24" height="20" viewBox="0 0 24 20" fill="none" xmlns="http://www.w3.org/2000/svg">
<path fill-rule="evenodd" clip-rule="evenodd" d="M18.0405 12.4L24 17.4375L21 20L14.8875 15.03C13.3458 15.8295 11.5658 16.2522 9.75 16.25C4.365 16.25 0 12.6038 0 8.125C0 3.6375 4.3755 0 9.75 0C15.135 0 19.5 3.64625 19.5 8.125C19.5027 9.63569 18.9971 11.1167 18.0405 12.4ZM2.9955 8.065C2.9955 11.165 6.0165 13.69 9.7455 13.69C13.4655 13.69 16.4955 11.1713 16.4955 8.065C16.4955 4.965 13.473 2.44 9.7455 2.44C6.0255 2.44 2.9955 4.9575 2.9955 8.065Z" fill="black" fill-opacity="0.47"/>
</svg>
